<svg xmlns="http://www.w3.org/2000/svg" xmlns:xlink="http://www.w3.org/1999/xlink" version="1.1" width="256" height="256" viewBox="0 0 256 256" xml:space="preserve">

<defs>
</defs>
<g style="stroke: none; stroke-width: 0; stroke-dasharray: none; stroke-linecap: butt; stroke-linejoin: miter; stroke-miterlimit: 10; fill: none; fill-rule: nonzero; opacity: 1;" transform="translate(1.4065934065934016 1.4065934065934016) scale(2.81 2.81)" >
	<path d="M 77.152 54.216 H 12.848 c -1.41 0 -2.553 -1.143 -2.553 -2.553 V 12.979 c 0 -1.41 1.143 -2.553 2.553 -2.553 h 64.304 c 1.41 0 2.553 1.143 2.553 2.553 v 38.683 C 79.705 53.073 78.562 54.216 77.152 54.216 z" style="stroke: none; stroke-width: 1; stroke-dasharray: none; stroke-linecap: butt; stroke-linejoin: miter; stroke-miterlimit: 10; fill: rgb(96,156,214); fill-rule: nonzero; opacity: 1;" transform=" matrix(1 0 0 1 0 0) " stroke-linecap="round" />
	<path d="M 77.817 54.216 H 12.183 c -1.154 0 -2.207 0.66 -2.71 1.699 L 1 73.424 h 88 l -8.473 -17.51 C 80.024 54.876 78.971 54.216 77.817 54.216 z" style="stroke: none; stroke-width: 1; stroke-dasharray: none; stroke-linecap: butt; stroke-linejoin: miter; stroke-miterlimit: 10; fill: rgb(218,237,255); fill-rule: nonzero; opacity: 1;" transform=" matrix(1 0 0 1 0 0) " stroke-linecap="round" />
	<path d="M 73.023 59.406 H 16.977 c -1.073 0 -2.051 0.613 -2.518 1.579 l -1.78 3.678 c -0.337 0.697 0.17 1.507 0.945 1.507 h 62.752 c 0.774 0 1.282 -0.81 0.945 -1.507 l -1.78 -3.678 C 75.074 60.019 74.096 59.406 73.023 59.406 z" style="stroke: none; stroke-width: 1; stroke-dasharray: none; stroke-linecap: butt; stroke-linejoin: miter; stroke-miterlimit: 10; fill: rgb(157,195,229); fill-rule: nonzero; opacity: 1;" transform=" matrix(1 0 0 1 0 0) " stroke-linecap="round" />
	<path d="M 84.26 79.573 H 5.74 c -2.618 0 -4.74 -2.122 -4.74 -4.74 v -1.409 h 88 v 1.409 C 89 77.451 86.878 79.573 84.26 79.573 z" style="stroke: none; stroke-width: 1; stroke-dasharray: none; stroke-linecap: butt; stroke-linejoin: miter; stroke-miterlimit: 10; fill: rgb(182,220,255); fill-rule: nonzero; opacity: 1;" transform=" matrix(1 0 0 1 0 0) " stroke-linecap="round" />
	<rect x="33.79" y="73.42" rx="0" ry="0" width="22.41" height="6.15" style="stroke: none; stroke-width: 1; stroke-dasharray: none; stroke-linecap: butt; stroke-linejoin: miter; stroke-miterlimit: 10; fill: rgb(157,195,229); fill-rule: nonzero; opacity: 1;" transform=" matrix(1 0 0 1 0 0) "/>
	<path d="M 77.152 55.216 H 12.848 c -1.959 0 -3.553 -1.594 -3.553 -3.553 V 12.979 c 0 -1.959 1.594 -3.553 3.553 -3.553 h 64.304 c 1.959 0 3.553 1.594 3.553 3.553 v 38.684 C 80.705 53.622 79.111 55.216 77.152 55.216 z M 12.848 11.427 c -0.856 0 -1.553 0.697 -1.553 1.553 v 38.684 c 0 0.856 0.697 1.553 1.553 1.553 h 64.304 c 0.856 0 1.553 -0.696 1.553 -1.553 V 12.979 c 0 -0.856 -0.696 -1.553 -1.553 -1.553 H 12.848 z" style="stroke: none; stroke-width: 1; stroke-dasharray: none; stroke-linecap: butt; stroke-linejoin: miter; stroke-miterlimit: 10; fill: rgb(41,68,95); fill-rule: nonzero; opacity: 1;" transform=" matrix(1 0 0 1 0 0) " stroke-linecap="round" />
	<path d="M 89 74.425 H 1 c -0.344 0 -0.665 -0.177 -0.847 -0.469 C -0.03 73.664 -0.05 73.299 0.1 72.989 l 8.474 -17.51 c 0.666 -1.375 2.083 -2.264 3.61 -2.264 h 65.634 c 1.527 0 2.944 0.889 3.61 2.264 l 8.473 17.51 c 0.149 0.31 0.13 0.675 -0.053 0.967 C 89.664 74.248 89.345 74.425 89 74.425 z M 2.595 72.425 h 84.811 l -7.778 -16.074 c -0.333 -0.689 -1.044 -1.135 -1.81 -1.135 H 12.183 c -0.766 0 -1.476 0.445 -1.81 1.135 L 2.595 72.425 z" style="stroke: none; stroke-width: 1; stroke-dasharray: none; stroke-linecap: butt; stroke-linejoin: miter; stroke-miterlimit: 10; fill: rgb(41,68,95); fill-rule: nonzero; opacity: 1;" transform=" matrix(1 0 0 1 0 0) " stroke-linecap="round" />
	<path d="M 76.376 67.169 H 13.624 c -0.71 0 -1.359 -0.359 -1.737 -0.961 c -0.377 -0.602 -0.417 -1.342 -0.108 -1.981 l 1.78 -3.678 c 0.63 -1.302 1.971 -2.144 3.417 -2.144 h 56.047 c 1.447 0 2.788 0.842 3.418 2.144 l 1.779 3.678 c 0.31 0.639 0.27 1.38 -0.108 1.981 C 77.735 66.81 77.086 67.169 76.376 67.169 z M 16.977 60.405 c -0.685 0 -1.319 0.398 -1.617 1.015 l -1.78 3.678 l 62.797 0.071 l -1.735 -3.749 c -0.298 -0.616 -0.933 -1.015 -1.617 -1.015 H 16.977 z" style="stroke: none; stroke-width: 1; stroke-dasharray: none; stroke-linecap: butt; stroke-linejoin: miter; stroke-miterlimit: 10; fill: rgb(41,68,95); fill-rule: nonzero; opacity: 1;" transform=" matrix(1 0 0 1 0 0) " stroke-linecap="round" />
	<path d="M 84.26 80.573 H 5.74 c -3.165 0 -5.74 -2.575 -5.74 -5.74 v -1.408 c 0 -0.553 0.448 -1 1 -1 h 88 c 0.553 0 1 0.447 1 1 v 1.408 C 90 77.998 87.425 80.573 84.26 80.573 z M 2 74.425 v 0.408 c 0 2.063 1.678 3.74 3.74 3.74 h 78.52 c 2.063 0 3.74 -1.678 3.74 -3.74 v -0.408 H 2 z" style="stroke: none; stroke-width: 1; stroke-dasharray: none; stroke-linecap: butt; stroke-linejoin: miter; stroke-miterlimit: 10; fill: rgb(41,68,95); fill-rule: nonzero; opacity: 1;" transform=" matrix(1 0 0 1 0 0) " stroke-linecap="round" />
	<path d="M 56.206 80.573 H 33.794 c -0.552 0 -1 -0.447 -1 -1 v -6.148 c 0 -0.553 0.448 -1 1 -1 h 22.412 c 0.553 0 1 0.447 1 1 v 6.148 C 57.206 80.126 56.759 80.573 56.206 80.573 z M 34.794 78.573 h 20.412 v -4.148 H 34.794 V 78.573 z" style="stroke: none; stroke-width: 1; stroke-dasharray: none; stroke-linecap: butt; stroke-linejoin: miter; stroke-miterlimit: 10; fill: rgb(41,68,95); fill-rule: nonzero; opacity: 1;" transform=" matrix(1 0 0 1 0 0) " stroke-linecap="round" />
	<path d="M 42.852 31.884 L 42.852 31.884 c -0.587 -0.339 -0.933 -0.976 -0.9 -1.653 c 0.014 -0.294 0.014 -0.589 0 -0.884 c -0.033 -0.675 0.314 -1.312 0.899 -1.649 l 0 0 c 0.865 -0.499 1.161 -1.605 0.662 -2.469 l -1.382 -2.394 c -0.499 -0.865 -1.605 -1.161 -2.469 -0.662 l 0 0 c -0.585 0.338 -1.31 0.32 -1.878 -0.046 c -0.249 -0.16 -0.504 -0.308 -0.766 -0.442 c -0.602 -0.31 -0.982 -0.928 -0.982 -1.605 v -0.001 c 0 -0.998 -0.809 -1.807 -1.807 -1.807 h -2.765 c -0.998 0 -1.807 0.809 -1.807 1.807 c 0 0.687 -0.395 1.304 -1.006 1.619 c -0.122 0.063 -0.243 0.129 -0.363 0.198 c -0.12 0.069 -0.238 0.141 -0.353 0.215 c -0.578 0.371 -1.31 0.405 -1.905 0.061 c -0.864 -0.499 -1.97 -0.203 -2.469 0.662 l -1.382 2.394 c -0.499 0.864 -0.203 1.97 0.662 2.469 l 0.001 0 c 0.586 0.339 0.932 0.976 0.899 1.653 c -0.014 0.294 -0.014 0.589 0 0.884 c 0.033 0.675 -0.314 1.312 -0.899 1.649 l 0 0 c -0.865 0.499 -1.161 1.605 -0.662 2.469 l 1.382 2.394 c 0.499 0.865 1.605 1.161 2.469 0.662 l 0 0 c 0.585 -0.338 1.31 -0.32 1.878 0.046 c 0.249 0.16 0.504 0.308 0.766 0.442 c 0.602 0.31 0.982 0.928 0.982 1.605 v 0.001 c 0 0.998 0.809 1.807 1.807 1.807 h 2.765 c 0.998 0 1.807 -0.809 1.807 -1.807 c 0 -0.687 0.395 -1.304 1.006 -1.619 c 0.122 -0.063 0.243 -0.129 0.363 -0.198 c 0.12 -0.069 0.238 -0.141 0.353 -0.215 c 0.578 -0.371 1.31 -0.405 1.905 -0.061 c 0.864 0.499 1.97 0.203 2.469 -0.662 l 1.382 -2.394 C 44.012 33.488 43.716 32.383 42.852 31.884 z M 32.846 34.273 c -2.476 0 -4.482 -2.007 -4.482 -4.482 s 2.007 -4.482 4.482 -4.482 c 2.476 0 4.482 2.007 4.482 4.482 S 35.322 34.273 32.846 34.273 z" style="stroke: none; stroke-width: 1; stroke-dasharray: none; stroke-linecap: butt; stroke-linejoin: miter; stroke-miterlimit: 10; fill: rgb(0,242,169); fill-rule: nonzero; opacity: 1;" transform=" matrix(1 0 0 1 0 0) " stroke-linecap="round" />
	<path d="M 34.229 42.31 h -2.765 c -1.548 0 -2.808 -1.259 -2.808 -2.807 c 0 -0.303 -0.168 -0.577 -0.439 -0.717 c -0.289 -0.148 -0.573 -0.313 -0.849 -0.49 c -0.254 -0.164 -0.576 -0.173 -0.837 -0.021 c -0.65 0.375 -1.407 0.474 -2.131 0.28 c -0.724 -0.194 -1.33 -0.659 -1.705 -1.308 l -1.382 -2.394 c -0.375 -0.649 -0.474 -1.406 -0.28 -2.13 s 0.659 -1.33 1.308 -1.705 c 0.262 -0.151 0.415 -0.433 0.4 -0.735 c -0.016 -0.329 -0.016 -0.655 0 -0.981 c 0.015 -0.305 -0.138 -0.587 -0.4 -0.738 c -1.341 -0.774 -1.802 -2.495 -1.029 -3.836 l 1.382 -2.394 c 0.775 -1.341 2.496 -1.8 3.835 -1.027 c 0.263 0.151 0.594 0.137 0.865 -0.037 c 0.13 -0.083 0.262 -0.164 0.396 -0.241 c 0.129 -0.075 0.264 -0.148 0.4 -0.218 c 0.287 -0.149 0.465 -0.429 0.465 -0.732 c 0 -1.548 1.259 -2.808 2.808 -2.808 h 2.765 c 1.548 0 2.807 1.259 2.807 2.808 c 0 0.303 0.168 0.577 0.439 0.717 c 0.29 0.148 0.574 0.313 0.85 0.49 c 0.254 0.164 0.575 0.17 0.836 0.021 c 0.649 -0.375 1.407 -0.475 2.13 -0.281 c 0.725 0.194 1.331 0.659 1.706 1.308 l 1.382 2.394 c 0.774 1.341 0.313 3.062 -1.028 3.835 c -0.262 0.151 -0.415 0.433 -0.4 0.735 c 0.016 0.328 0.016 0.655 0 0.981 c -0.015 0.305 0.138 0.587 0.4 0.739 l -0.5 0.866 l 0.5 -0.866 c 0.649 0.375 1.114 0.98 1.309 1.705 c 0.194 0.725 0.094 1.481 -0.28 2.13 l -1.382 2.394 c -0.375 0.649 -0.98 1.114 -1.705 1.309 c -0.724 0.193 -1.481 0.094 -2.13 -0.28 c -0.262 -0.151 -0.593 -0.138 -0.865 0.037 c -0.13 0.083 -0.262 0.163 -0.396 0.24 c -0.13 0.075 -0.264 0.148 -0.399 0.218 c -0.288 0.149 -0.466 0.429 -0.466 0.732 C 37.036 41.05 35.776 42.31 34.229 42.31 z M 26.933 36.166 c 0.527 0 1.054 0.15 1.517 0.448 c 0.221 0.142 0.449 0.273 0.682 0.393 c 0.941 0.484 1.525 1.44 1.525 2.495 c 0 0.446 0.362 0.808 0.808 0.808 h 2.765 c 0.445 0 0.807 -0.362 0.807 -0.807 c 0 -1.054 0.593 -2.015 1.547 -2.508 c 0.107 -0.056 0.214 -0.114 0.321 -0.176 c 0.109 -0.062 0.212 -0.125 0.314 -0.19 c 0.903 -0.58 2.032 -0.612 2.944 -0.085 c 0.188 0.108 0.404 0.136 0.613 0.08 c 0.208 -0.056 0.382 -0.189 0.49 -0.376 l 1.382 -2.394 c 0.108 -0.187 0.137 -0.404 0.081 -0.613 c -0.056 -0.208 -0.189 -0.382 -0.375 -0.49 c 0 0 0 0 0 0 c -0.915 -0.528 -1.451 -1.512 -1.399 -2.568 c 0.013 -0.261 0.013 -0.524 0 -0.788 c -0.051 -1.053 0.484 -2.036 1.398 -2.563 c 0.386 -0.223 0.519 -0.718 0.296 -1.104 l -1.382 -2.394 c -0.107 -0.187 -0.282 -0.32 -0.49 -0.376 c -0.207 -0.054 -0.425 -0.027 -0.613 0.081 c -0.913 0.527 -2.032 0.5 -2.919 -0.071 c -0.222 -0.143 -0.449 -0.273 -0.681 -0.393 c -0.941 -0.484 -1.525 -1.44 -1.525 -2.495 c 0 -0.446 -0.362 -0.808 -0.807 -0.808 h -2.765 c -0.445 0 -0.808 0.362 -0.808 0.808 c 0 1.053 -0.592 2.014 -1.546 2.508 c -0.107 0.055 -0.214 0.113 -0.32 0.175 c -0.111 0.063 -0.215 0.127 -0.316 0.192 c -0.901 0.58 -2.03 0.613 -2.944 0.085 c -0.186 -0.107 -0.404 -0.136 -0.613 -0.081 c -0.208 0.056 -0.382 0.189 -0.491 0.376 l -1.382 2.394 c -0.223 0.386 -0.09 0.88 0.295 1.103 c 0.915 0.528 1.451 1.512 1.399 2.568 c -0.013 0.261 -0.013 0.524 0 0.788 c 0.051 1.053 -0.485 2.036 -1.398 2.563 c -0.187 0.108 -0.321 0.282 -0.377 0.491 c -0.056 0.208 -0.027 0.426 0.081 0.613 l 1.382 2.394 c 0.108 0.187 0.282 0.321 0.49 0.376 c 0.208 0.056 0.426 0.027 0.612 -0.081 C 25.967 36.291 26.45 36.166 26.933 36.166 z M 32.846 35.272 c -3.023 0 -5.482 -2.459 -5.482 -5.482 s 2.459 -5.482 5.482 -5.482 s 5.482 2.459 5.482 5.482 S 35.869 35.272 32.846 35.272 z M 32.846 26.308 c -1.92 0 -3.482 1.562 -3.482 3.482 s 1.562 3.482 3.482 3.482 s 3.482 -1.562 3.482 -3.482 S 34.767 26.308 32.846 26.308 z" style="stroke: none; stroke-width: 1; stroke-dasharray: none; stroke-linecap: butt; stroke-linejoin: miter; stroke-miterlimit: 10; fill: rgb(41,68,95); fill-rule: nonzero; opacity: 1;" transform=" matrix(1 0 0 1 0 0) " stroke-linecap="round" />
	<path d="M 67.159 36.303 L 67.159 36.303 c -0.587 -0.339 -0.933 -0.976 -0.9 -1.653 c 0.014 -0.294 0.014 -0.589 0 -0.884 c -0.033 -0.675 0.314 -1.312 0.899 -1.649 l 0 0 c 0.865 -0.499 1.161 -1.605 0.662 -2.469 l -1.382 -2.394 c -0.499 -0.865 -1.605 -1.161 -2.469 -0.662 l 0 0 c -0.585 0.338 -1.31 0.32 -1.878 -0.046 c -0.249 -0.16 -0.504 -0.308 -0.766 -0.442 c -0.602 -0.31 -0.982 -0.928 -0.982 -1.605 v -0.001 c 0 -0.998 -0.809 -1.807 -1.807 -1.807 h -2.765 c -0.998 0 -1.807 0.809 -1.807 1.807 c 0 0.687 -0.395 1.304 -1.006 1.619 c -0.122 0.063 -0.243 0.129 -0.363 0.198 c -0.12 0.069 -0.238 0.141 -0.353 0.215 c -0.578 0.371 -1.31 0.405 -1.905 0.061 c -0.864 -0.499 -1.97 -0.203 -2.469 0.662 l -1.382 2.394 c -0.499 0.864 -0.203 1.97 0.662 2.469 l 0.001 0 c 0.586 0.339 0.932 0.976 0.899 1.653 c -0.014 0.294 -0.014 0.589 0 0.884 c 0.033 0.675 -0.314 1.312 -0.899 1.649 l 0 0 c -0.865 0.499 -1.161 1.605 -0.662 2.469 l 1.382 2.394 c 0.499 0.865 1.605 1.161 2.469 0.662 l 0 0 c 0.585 -0.338 1.31 -0.32 1.878 0.046 c 0.249 0.16 0.504 0.308 0.766 0.442 c 0.602 0.31 0.982 0.928 0.982 1.605 v 0.001 c 0 0.998 0.809 1.807 1.807 1.807 h 2.765 c 0.998 0 1.807 -0.809 1.807 -1.807 c 0 -0.687 0.395 -1.304 1.006 -1.619 c 0.122 -0.063 0.243 -0.129 0.363 -0.198 c 0.12 -0.069 0.238 -0.141 0.353 -0.215 c 0.578 -0.371 1.31 -0.405 1.905 -0.061 c 0.864 0.499 1.97 0.203 2.469 -0.662 l 1.382 -2.394 C 68.32 37.908 68.024 36.802 67.159 36.303 z M 57.154 38.692 c -2.476 0 -4.482 -2.007 -4.482 -4.482 s 2.007 -4.482 4.482 -4.482 c 2.476 0 4.482 2.007 4.482 4.482 S 59.63 38.692 57.154 38.692 z" style="stroke: none; stroke-width: 1; stroke-dasharray: none; stroke-linecap: butt; stroke-linejoin: miter; stroke-miterlimit: 10; fill: rgb(255,194,109); fill-rule: nonzero; opacity: 1;" transform=" matrix(1 0 0 1 0 0) " stroke-linecap="round" />
	<path d="M 58.536 46.729 h -2.765 c -1.548 0 -2.808 -1.259 -2.808 -2.808 c 0 -0.303 -0.168 -0.578 -0.439 -0.717 c -0.29 -0.149 -0.574 -0.313 -0.85 -0.491 c -0.255 -0.164 -0.573 -0.171 -0.836 -0.021 c -0.648 0.375 -1.403 0.477 -2.131 0.281 c -0.725 -0.194 -1.33 -0.659 -1.705 -1.308 l -1.382 -2.395 c -0.774 -1.34 -0.313 -3.061 1.027 -3.835 c 0.262 -0.151 0.415 -0.433 0.4 -0.734 c -0.015 -0.33 -0.015 -0.656 0 -0.98 c 0.016 -0.307 -0.139 -0.589 -0.4 -0.741 c -0.648 -0.374 -1.113 -0.979 -1.308 -1.704 c -0.195 -0.725 -0.095 -1.481 0.279 -2.13 l 1.383 -2.395 c 0.375 -0.649 0.98 -1.114 1.705 -1.309 c 0.725 -0.196 1.48 -0.094 2.13 0.281 c 0.263 0.151 0.594 0.137 0.865 -0.037 c 0.13 -0.083 0.261 -0.164 0.396 -0.241 c 0.131 -0.076 0.266 -0.149 0.401 -0.219 c 0.286 -0.148 0.464 -0.428 0.464 -0.731 c 0 -1.548 1.26 -2.807 2.808 -2.807 h 2.765 c 1.548 0 2.808 1.259 2.808 2.807 c 0 0.303 0.168 0.578 0.439 0.717 c 0.289 0.148 0.573 0.313 0.849 0.49 c 0.256 0.164 0.575 0.171 0.837 0.021 c 0.649 -0.376 1.406 -0.476 2.131 -0.281 c 0.725 0.194 1.33 0.659 1.705 1.308 l 1.383 2.394 c 0.773 1.34 0.313 3.061 -1.028 3.835 c -0.262 0.151 -0.415 0.432 -0.4 0.734 c 0.016 0.329 0.016 0.657 0 0.984 c -0.016 0.303 0.138 0.585 0.399 0.736 c 0.001 0 0.001 0 0.001 0 c 1.341 0.774 1.802 2.495 1.028 3.835 l -1.382 2.394 c -0.774 1.342 -2.495 1.802 -3.836 1.028 c -0.261 -0.152 -0.592 -0.137 -0.866 0.037 c -0.129 0.083 -0.26 0.163 -0.395 0.24 c -0.128 0.075 -0.263 0.147 -0.397 0.218 c -0.289 0.149 -0.468 0.43 -0.468 0.732 C 61.344 45.47 60.084 46.729 58.536 46.729 z M 51.24 40.585 c 0.527 0 1.055 0.15 1.518 0.448 c 0.222 0.143 0.449 0.274 0.681 0.393 c 0.941 0.484 1.525 1.44 1.525 2.495 c 0 0.446 0.362 0.808 0.808 0.808 h 2.765 c 0.445 0 0.808 -0.362 0.808 -0.808 c 0 -1.053 0.593 -2.014 1.546 -2.508 c 0.105 -0.055 0.213 -0.113 0.319 -0.175 c 0.111 -0.063 0.215 -0.127 0.316 -0.192 c 0.903 -0.579 2.032 -0.612 2.944 -0.085 c 0.187 0.108 0.404 0.138 0.613 0.081 c 0.208 -0.056 0.383 -0.189 0.49 -0.376 l 1.382 -2.394 c 0.223 -0.385 0.09 -0.88 -0.296 -1.103 c -0.914 -0.528 -1.45 -1.512 -1.398 -2.568 c 0.014 -0.262 0.014 -0.524 0 -0.787 c -0.052 -1.055 0.484 -2.038 1.398 -2.565 c 0.187 -0.107 0.32 -0.282 0.376 -0.491 c 0.057 -0.208 0.027 -0.426 -0.08 -0.612 l -1.383 -2.394 c -0.107 -0.187 -0.282 -0.321 -0.49 -0.376 c -0.211 -0.056 -0.427 -0.026 -0.612 0.081 c -0.914 0.527 -2.034 0.5 -2.92 -0.071 c -0.221 -0.142 -0.448 -0.273 -0.681 -0.393 c -0.941 -0.484 -1.525 -1.44 -1.525 -2.495 c 0 -0.446 -0.362 -0.808 -0.808 -0.808 h -2.765 c -0.445 0 -0.808 0.362 -0.808 0.807 c 0 1.054 -0.592 2.014 -1.545 2.508 c -0.109 0.056 -0.217 0.115 -0.323 0.176 c -0.108 0.062 -0.212 0.125 -0.313 0.19 c -0.902 0.58 -2.032 0.613 -2.944 0.085 c -0.188 -0.107 -0.405 -0.136 -0.612 -0.081 c -0.208 0.056 -0.383 0.189 -0.49 0.376 l -1.383 2.395 c -0.223 0.385 -0.09 0.88 0.296 1.103 c 0.914 0.529 1.45 1.513 1.398 2.568 c -0.013 0.26 -0.013 0.525 0 0.789 c 0.052 1.051 -0.483 2.034 -1.397 2.562 c -0.188 0.108 -0.321 0.283 -0.377 0.491 c -0.056 0.208 -0.027 0.426 0.081 0.612 l 1.382 2.395 c 0.107 0.187 0.281 0.32 0.49 0.376 c 0.207 0.057 0.427 0.028 0.612 -0.081 C 50.274 40.71 50.758 40.585 51.24 40.585 z M 57.154 39.692 c -3.023 0 -5.482 -2.459 -5.482 -5.482 s 2.459 -5.482 5.482 -5.482 s 5.482 2.459 5.482 5.482 S 60.178 39.692 57.154 39.692 z M 57.154 30.728 c -1.92 0 -3.482 1.562 -3.482 3.482 s 1.563 3.482 3.482 3.482 s 3.482 -1.562 3.482 -3.482 S 59.074 30.728 57.154 30.728 z" style="stroke: none; stroke-width: 1; stroke-dasharray: none; stroke-linecap: butt; stroke-linejoin: miter; stroke-miterlimit: 10; fill: rgb(41,68,95); fill-rule: nonzero; opacity: 1;" transform=" matrix(1 0 0 1 0 0) " stroke-linecap="round" />
</g>
</svg>