<svg xmlns="http://www.w3.org/2000/svg" viewBox="0 0 130 137" id="leaderboard"><g data-name="Layer 2"><g data-name="Layer 1"><path fill="#f93052" d="M117.24 71.29c0 29.41-23.41 53.25-52.3 53.25a51.43 51.43 0 0 1-33.59-12.45 53.26 53.26 0 0 1-17.73-30.52 54 54 0 0 1-1-10.28C12.64 41.88 36.05 18 64.94 18a51.56 51.56 0 0 1 28.8 8.8 52.74 52.74 0 0 1 11.43 10.43 53.6 53.6 0 0 1 12.07 34z"></path><path fill="#f15a24" d="M114.5 54.24l-66.31 67.51a51.73 51.73 0 01-16.85-9.66c.21-.27.43-.51.67-.76l71.31-72.61a9.58 9.58 0 011.84-1.45 53.57 53.57 0 019.34 16.97zM93.74 26.84c-.18.21-.35.41-.55.61l-71.32 72.61c-.2.2-.39.38-.6.56a53.36 53.36 0 01-7.66-19L75 19a51.37 51.37 0 0118.74 7.84z"></path><path fill="#ed1c24" d="M129.31 62.5a65 65 0 0 1-128.62 0A66.08 66.08 0 0 0 0 72a65 65 0 0 0 130 0 66.08 66.08 0 0 0-.69-9.5z"></path><path fill="#f7931e" d="M65 20a45 45 0 1 1-45 45 45.05 45.05 0 0 1 45-45m0-20a65 65 0 1 0 65 65A65 65 0 0 0 65 0z"></path><path fill="#f15a24" d="M65.5 111c-25.27 0-47.76-9.89-62.11-25.26A65 65 0 0 0 126 87.37C111.64 101.81 89.86 111 65.5 111z"></path><rect width="60.63" height="30.25" x="35.78" y="60.75" fill="#c1272d" rx="6.5" ry="6.5"></rect><rect width="30.25" height="30.25" x="52.28" y="38" fill="#c1272d" rx="6.5" ry="6.5"></rect><rect width="30.25" height="30.25" x="33.72" y="58.69" fill="#fff" rx="6.5" ry="6.5"></rect><rect width="42.8" height="30.25" x="51.41" y="58.69" fill="#fff" rx="6.5" ry="6.5"></rect><rect width="30.25" height="30.25" x="48.84" y="36.69" fill="#fff" rx="6.5" ry="6.5"></rect><path fill="#ed1c24" d="M60.79 54.41c.1 0 .35 0 .74.08a2.71 2.71 0 0 0 .43 0q1 0 1.1-1.5.08-.85.08-4.85a1.15 1.15 0 0 0-.25-.84 1.31 1.31 0 0 0-.9-.24H61.15a.9.9 0 0 1-.62-.21.69.69 0 0 1-.24-.54 1 1 0 0 1 .36-.71 3.15 3.15 0 0 1 1-.62 17.14 17.14 0 0 1 6.76-1.35 3.26 3.26 0 0 1 1.42.23.77.77 0 0 1 .44.74.66.66 0 0 1-.15.46 1.78 1.78 0 0 1-.58.35c-.46.2-.73.45-.8.74a31.22 31.22 0 0 0-.16 3.41q.09 3 .1 3.22a4.28 4.28 0 0 0 .09.6 1.21 1.21 0 0 0 .51.82 3 3 0 0 0 1.3.27q1.06 0 1.06.86t-1.49 1.12a24.17 24.17 0 0 1-4.27.37 21 21 0 0 1-2.72-.17 12.72 12.72 0 0 1-2.49-.55q-.86-.31-.86-.94a.76.76 0 0 1 .28-.58 1.06 1.06 0 0 1 .7-.17z"></path><path fill="#f15a24" d="M59.79 53.41c.1 0 .35 0 .74.08a2.71 2.71 0 0 0 .43 0q1 0 1.1-1.5.08-.85.08-4.85a1.15 1.15 0 0 0-.25-.84 1.31 1.31 0 0 0-.9-.24H60.15a.9.9 0 0 1-.62-.21.69.69 0 0 1-.24-.54 1 1 0 0 1 .36-.71 3.15 3.15 0 0 1 1-.62 17.14 17.14 0 0 1 6.76-1.35 3.26 3.26 0 0 1 1.42.23.77.77 0 0 1 .44.74.66.66 0 0 1-.15.46 1.78 1.78 0 0 1-.58.35c-.46.2-.73.45-.8.74a31.22 31.22 0 0 0-.16 3.41q.09 3 .1 3.22a4.28 4.28 0 0 0 .09.6 1.21 1.21 0 0 0 .51.82 3 3 0 0 0 1.3.27q1.06 0 1.06.86t-1.49 1.12a24.17 24.17 0 0 1-4.27.37 21 21 0 0 1-2.72-.17 12.72 12.72 0 0 1-2.49-.55q-.86-.31-.86-.94a.76.76 0 0 1 .28-.58 1.06 1.06 0 0 1 .7-.17z"></path><path fill="#ed1c24" d="M81.82 67.72a8.86 8.86 0 0 1 3.85.8 2.63 2.63 0 0 1 1.05.9 2.19 2.19 0 0 1 .39 1.24 2.86 2.86 0 0 1-1.27 2.22q-.36.29-.36.46c0 .22.21.37.64.45q3 .56 3 3.37a4.88 4.88 0 0 1-1.24 3.22 6.82 6.82 0 0 1-3.45 2.07 13 13 0 0 1-3.6.47 10.94 10.94 0 0 1-4-.64q-1-.4-1-1.18a1.07 1.07 0 0 1 .35-.81 1.21 1.21 0 0 1 .86-.33 10.44 10.44 0 0 1 1.52.28 5.05 5.05 0 0 0 1.16.1 3.41 3.41 0 0 0 2.15-.62 1.91 1.91 0 0 0 .84-1.52 1.59 1.59 0 0 0-.65-1.31 2.63 2.63 0 0 0-1.67-.51 4 4 0 0 0-1.15.15 1.67 1.67 0 0 1-.44.09q-.29 0-.6-.59a2.51 2.51 0 0 1-.31-1.16.41.41 0 0 1 .15-.37 6.33 6.33 0 0 1 .93-.36 3.48 3.48 0 0 0 1.36-.9 1.54 1.54 0 0 0 .49-1.09 1.46 1.46 0 0 0-.51-1.11 1.73 1.73 0 0 0-1.21-.47 2.24 2.24 0 0 0-.72.1 9 9 0 0 0-1.1.53.88.88 0 0 1-.37.12q-.28 0-.53-.39a1.51 1.51 0 0 1-.25-.83q0-.76 1.35-1.44a8.67 8.67 0 0 1 2-.69 10.51 10.51 0 0 1 2.34-.25z"></path><path fill="#f15a24" d="M80.82 66.72a8.86 8.86 0 0 1 3.85.8 2.63 2.63 0 0 1 1.05.9 2.19 2.19 0 0 1 .39 1.24 2.86 2.86 0 0 1-1.27 2.22q-.36.29-.36.46c0 .22.21.37.64.45q3 .56 3 3.37a4.88 4.88 0 0 1-1.24 3.22 6.82 6.82 0 0 1-3.45 2.07 13 13 0 0 1-3.6.47 10.94 10.94 0 0 1-4-.64q-1-.4-1-1.18a1.07 1.07 0 0 1 .35-.81 1.21 1.21 0 0 1 .86-.33 10.44 10.44 0 0 1 1.52.28 5.05 5.05 0 0 0 1.16.1 3.41 3.41 0 0 0 2.15-.62 1.91 1.91 0 0 0 .84-1.52 1.59 1.59 0 0 0-.65-1.31 2.63 2.63 0 0 0-1.67-.51 4 4 0 0 0-1.15.15 1.67 1.67 0 0 1-.44.09q-.29 0-.6-.59a2.51 2.51 0 0 1-.31-1.16.41.41 0 0 1 .15-.37 6.33 6.33 0 0 1 .93-.36 3.48 3.48 0 0 0 1.36-.9 1.54 1.54 0 0 0 .49-1.09 1.46 1.46 0 0 0-.51-1.11 1.73 1.73 0 0 0-1.21-.47 2.24 2.24 0 0 0-.72.1 9 9 0 0 0-1.1.53.88.88 0 0 1-.37.12q-.28 0-.53-.39a1.51 1.51 0 0 1-.25-.83q0-.76 1.35-1.44a8.67 8.67 0 0 1 2-.69 10.51 10.51 0 0 1 2.34-.25z"></path><path fill="#ed1c24" d="M52.78 80.6h-7.65q-1 0-1-.57a.83.83 0 0 1 .21-.54q.21-.25 1.38-1.35a18.25 18.25 0 0 0 3.21-3.81 3.16 3.16 0 0 0 .54-1.55 1.22 1.22 0 0 0-.33-.89 1.17 1.17 0 0 0-.88-.33 1.74 1.74 0 0 0-.79.14 9.68 9.68 0 0 0-1.19.92 1 1 0 0 1-.65.2 1.4 1.4 0 0 1-1-.41 1.2 1.2 0 0 1-.44-.89 1.76 1.76 0 0 1 .4-1 5 5 0 0 1 1.07-1 9 9 0 0 1 5.38-1.74 7.25 7.25 0 0 1 3.72.86 3.08 3.08 0 0 1 1.47 2.58q0 2-2.72 4.27-1 .81-1 1.21a.65.65 0 0 0 .29.53 1.14 1.14 0 0 0 .71.22 2.44 2.44 0 0 0 1.76-.76 4.31 4.31 0 0 1 .52-.46.68.68 0 0 1 .35-.08q1 0 1 1.69a4.91 4.91 0 0 1-.32 1.71A4.75 4.75 0 0 1 56 81a1.69 1.69 0 0 1-1.28.67.77.77 0 0 1-.45-.12 1.65 1.65 0 0 1-.38-.44 1 1 0 0 0-.4-.4 2 2 0 0 0-.71-.11z"></path><path fill="#f15a24" d="M51.78 79.6h-7.65q-1 0-1-.57a.83.83 0 0 1 .21-.54q.21-.25 1.38-1.35a18.25 18.25 0 0 0 3.21-3.81 3.16 3.16 0 0 0 .54-1.55 1.22 1.22 0 0 0-.33-.89 1.17 1.17 0 0 0-.88-.33 1.74 1.74 0 0 0-.79.14 9.68 9.68 0 0 0-1.19.92 1 1 0 0 1-.65.2 1.4 1.4 0 0 1-1-.41 1.2 1.2 0 0 1-.44-.89 1.76 1.76 0 0 1 .4-1 5 5 0 0 1 1.07-1 9 9 0 0 1 5.38-1.74 7.25 7.25 0 0 1 3.72.86 3.08 3.08 0 0 1 1.47 2.58q0 2-2.72 4.27-1 .81-1 1.21a.65.65 0 0 0 .29.53 1.14 1.14 0 0 0 .71.22 2.44 2.44 0 0 0 1.76-.76 4.31 4.31 0 0 1 .52-.46.68.68 0 0 1 .35-.08q1 0 1 1.69a4.91 4.91 0 0 1-.32 1.71A4.75 4.75 0 0 1 55 80a1.69 1.69 0 0 1-1.28.67.77.77 0 0 1-.45-.12 1.65 1.65 0 0 1-.38-.44 1 1 0 0 0-.4-.4 2 2 0 0 0-.71-.11z"></path></g></g></svg>